Coordinates
version=1
nRows=10
nColumns=40
inDegrees=yes

Units are S.I. units (second, meters, Newtons, ...)
Angles are in degrees.

endheader
time	pelvis_tilt	pelvis_list	pelvis_rotation	pelvis_tx	pelvis_ty	pelvis_tz	hip_flexion_r	hip_adduction_r	hip_rotation_r	knee_angle_r	knee_angle_r_beta	ankle_angle_r	subtalar_angle_r	mtp_angle_r	hip_flexion_l	hip_adduction_l	hip_rotation_l	knee_angle_l	knee_angle_l_beta	ankle_angle_l	subtalar_angle_l	mtp_angle_l	lumbar_extension	lumbar_bending	lumbar_rotation	arm_flex_r	arm_add_r	arm_rot_r	elbow_flex_r	pro_sup_r	wrist_flex_r	wrist_dev_r	arm_flex_l	arm_add_l	arm_rot_l	elbow_flex_l	pro_sup_l	wrist_flex_l	wrist_dev_l
      2.69500000	     -6.84392172	     -6.76118561	      2.50424436	      0.96312196	      0.91207597	      0.47677692	     -2.06602385	      5.69488255	    -19.24129135	      6.99282359	      6.99282359	     16.77252990	      8.31695282	     -4.40661152	     37.16568726	     -9.05735289	     -5.34617404	     17.90041582	     17.90041582	      6.84894798	     -5.25201085	     12.25362087	    -10.91376455	      9.43617526	      2.97309955	     46.43996634	    -12.18414198	     -3.13419430	     94.75029309	     44.15441305	      0.00000000	      0.00000000	    -16.76495388	     -6.65906499	      2.95294213	     25.13797635	     45.10744561	      0.00000000	      0.00000000
      2.70650000	     -6.83469112	     -6.63306123	      2.21691153	      0.96500734	      0.91033022	      0.47532796	     -2.52402420	      5.30850263	    -18.72503975	      7.77648808	      7.77648808	     18.12757970	      8.20355440	     -2.41716909	     36.57071507	     -8.81756792	     -5.67680516	     17.75188864	     17.75188864	      4.43427536	     -7.40403137	      8.44239183	    -10.86870722	      9.17641816	      3.53313972	     45.94087483	    -12.34896042	     -3.45403208	     99.45595233	     44.13118039	      0.00000000	      0.00000000	    -17.06381838	     -6.79445696	      3.12174802	     25.98346698	     45.13984804	      0.00000000	      0.00000000
      2.71800000	     -6.83151841	     -6.56282786	      2.03232831	      0.96690160	      0.90861785	      0.47368842	     -3.03896931	      5.00844102	    -18.35981134	      8.34748986	      8.34748986	     18.70591747	      7.96545366	     -2.49891234	     36.35804092	     -8.71728663	     -6.06127408	     18.54230810	     18.54230810	      3.65376383	     -8.61468145	      8.28292806	    -10.58223747	      9.02881621	      3.30929040	     46.12892915	    -11.92513502	     -3.22376230	    100.54924465	     44.10218920	      0.00000000	      0.00000000	    -17.20592189	     -6.74088393	      3.13372769	     25.97969949	     45.14334321	      0.00000000	      0.00000000
      2.72950000	     -6.93227765	     -6.42429403	      1.79199916	      0.96879844	      0.90691913	      0.47188690	     -3.27135172	      4.55743177	    -17.88358156	      9.25481961	      9.25481961	     19.38126784	      7.52887329	     -2.37459063	     36.20103966	     -8.50090025	     -6.01483154	     19.34907829	     19.34907829	      2.35526001	    -10.44832394	      7.45231876	    -10.21668186	      8.81466493	      3.24473618	     45.85892987	    -11.73867088	     -3.00638823	    102.42922058	     44.06035925	      0.00000000	      0.00000000	    -17.23156537	     -6.67844513	      3.03835702	     26.16053084	     45.17447159	      0.00000000	      0.00000000
      2.74100000	     -6.75880924	     -6.24426464	      1.56262787	      0.97094201	      0.90584176	      0.46998138	     -3.93824867	      4.08577002	    -17.51793158	      9.89554712	      9.89554712	     19.83526088	      7.39199676	     -2.46618776	     35.88821017	     -8.38147681	     -6.21401449	     20.59109066	     20.59109066	      1.72015821	    -11.48584590	      7.15694343	    -10.11278179	      8.53911713	      3.13868712	     45.59076649	    -11.55073920	     -2.90859191	    103.04671153	     44.04367632	      0.00000000	      0.00000000	    -17.07105869	     -6.67914836	      3.00697014	     26.20744267	     45.18702611	      0.00000000	      0.00000000
      2.75250000	     -6.74368536	     -6.09766483	      1.33856284	      0.97289152	      0.90469285	      0.46789206	     -4.02844909	      3.51039038	    -17.07576583	     11.32457435	     11.32457435	     20.52690863	      6.90860558	     -2.15297860	     35.64544303	     -8.11989281	     -5.71759096	     21.55179622	     21.55179622	     -0.01263806	    -13.71152256	      4.78340715	     -9.96906637	      8.31870187	      3.65403597	     44.48545313	    -12.16301153	     -3.23040236	    106.02221817	     44.02779489	      0.00000000	      0.00000000	    -16.39164272	     -6.65904059	      2.60231699	     26.21241001	     45.31001919	      0.00000000	      0.00000000
      2.76400000	     -6.50741983	     -5.87570936	      1.10855375	      0.97508960	      0.90431627	      0.46572119	     -4.57209638	      2.89870568	    -16.73896904	     12.30236613	     12.30236613	     20.74715543	      6.72703967	     -2.38039566	     35.31736483	     -7.96202790	     -5.69073041	     23.00179326	     23.00179326	     -0.08665075	    -14.50880821	      4.54563072	     -9.96583538	      8.00369722	      3.37494609	     43.89477532	    -11.81506912	     -3.04740997	    106.32663407	     44.01507043	      0.00000000	      0.00000000	    -16.04473304	     -6.59990191	      2.60391518	     26.24868512	     45.31902622	      0.00000000	      0.00000000
      2.77550000	     -6.58990030	     -5.65757010	      0.86906481	      0.97662103	      0.90365101	      0.46337561	     -4.05888820	      2.07057593	    -16.31903102	     14.57020838	     14.57020838	     20.99930351	      5.98653541	     -3.34748082	     35.38735082	     -7.69133915	     -5.29963797	     24.43501018	     24.43501018	     -0.06587014	    -15.68989691	      4.61090908	     -9.75380382	      7.71718316	      3.27429518	     42.89896207	    -11.88541225	     -2.93440808	    108.04498926	     43.98611039	      0.00000000	      0.00000000	    -15.34564875	     -6.49635984	      2.40956660	     26.16591798	     45.38264852	      0.00000000	      0.00000000
      2.78700000	     -6.46529011	     -5.47690035	      0.65040268	      0.97831846	      0.90374596	      0.46090900	     -3.87025326	      1.30209000	    -15.99795528	     16.60726943	     16.60726943	     20.89144502	      5.45929337	     -4.20371171	     35.18831948	     -7.51369744	     -5.14012723	     25.84685300	     25.84685300	      0.46879318	    -16.31198615	      4.59939560	     -9.75445504	      7.50495583	      3.08748167	     41.82778083	    -11.85698359	     -2.84058187	    108.81200763	     43.97134781	      0.00000000	      0.00000000	    -14.62061367	     -6.43745839	      2.30482461	     26.20808477	     45.42193028	      0.00000000	      0.00000000
      2.79850000	     -6.04391760	     -5.36726519	      0.49686295	      0.98022196	      0.90479668	      0.45835274	     -4.10685890	      0.64752971	    -15.73004052	     18.40684588	     18.40684588	     20.50968679	      5.06196405	     -4.72063609	     34.52072281	     -7.36591506	     -4.92797120	     27.00620668	     27.00620668	      1.17800433	    -16.82858611	      4.40483015	    -10.06764293	      7.37139180	      2.76527769	     40.50906716	    -11.71215577	     -2.65288294	    108.96777059	     43.96050325	      0.00000000	      0.00000000	    -13.85494039	     -6.40576803	      2.26867936	     26.38847112	     45.44415901	      0.00000000	      0.00000000
